<?xml version="1.0" encoding="UTF-8" standalone="no"?>
<!-- Created with Inkscape (http://www.inkscape.org/) -->

<svg
   xmlns:dc="http://purl.org/dc/elements/1.1/"
   xmlns:cc="http://creativecommons.org/ns#"
   xmlns:rdf="http://www.w3.org/1999/02/22-rdf-syntax-ns#"
   xmlns:svg="http://www.w3.org/2000/svg"
   xmlns="http://www.w3.org/2000/svg"
   xmlns:sodipodi="http://sodipodi.sourceforge.net/DTD/sodipodi-0.dtd"
   xmlns:inkscape="http://www.inkscape.org/namespaces/inkscape"
   width="8.4666662mm"
   height="6.8534865mm"
   viewBox="0 0 8.4666662 6.8534865"
   version="1.1"
   id="svg8"
   inkscape:version="0.92.5 (2060ec1f9f, 2020-04-08)"
   sodipodi:docname="camera.svg">
  <defs
     id="defs2" />
  <sodipodi:namedview
     id="base"
     pagecolor="#ffffff"
     bordercolor="#666666"
     borderopacity="1.0"
     inkscape:pageopacity="0.0"
     inkscape:pageshadow="2"
     inkscape:zoom="3.959798"
     inkscape:cx="131.2651"
     inkscape:cy="-132.941"
     inkscape:document-units="mm"
     inkscape:current-layer="layer1"
     showgrid="false"
     inkscape:window-width="3840"
     inkscape:window-height="2054"
     inkscape:window-x="0"
     inkscape:window-y="0"
     inkscape:window-maximized="1" />
  <metadata
     id="metadata5">
    <rdf:RDF>
      <cc:Work
         rdf:about="">
        <dc:format>image/svg+xml</dc:format>
        <dc:type
           rdf:resource="http://purl.org/dc/dcmitype/StillImage" />
        <dc:title></dc:title>
      </cc:Work>
    </rdf:RDF>
  </metadata>
  <g
     inkscape:label="Layer 1"
     inkscape:groupmode="layer"
     id="layer1"
     transform="translate(-73.540279,-68.177579)">
    <path
       style="fill:#000000;stroke-width:0.26458332"
       d="m 76.781425,74.881517 c -0.194857,-0.07863 -0.330729,-0.615865 -0.330729,-1.307701 0,-0.995775 0.100534,-1.220056 0.661458,-1.475629 0.494813,-0.225452 0.828104,-0.225452 1.322916,0 0.560149,0.255221 0.661459,0.480271 0.661459,1.46937 0,0.820979 -0.124342,1.215704 -0.418515,1.328589 -0.484121,0.185775 -1.417784,0.178573 -1.896589,-0.01463 z m 1.634222,-1.033771 c 0.523089,-0.523089 0.114791,-1.436834 -0.642035,-1.436834 -0.756826,0 -1.165124,0.913745 -0.642035,1.436834 0.521534,0.521534 0.762536,0.521534 1.28407,0 z m -0.906618,-0.643084 c 0,-0.145521 0.119062,-0.264583 0.264583,-0.264583 0.145521,0 0.264583,0.119062 0.264583,0.264583 0,0.145521 -0.119062,0.264583 -0.264583,0.264583 -0.145521,0 -0.264583,-0.119062 -0.264583,-0.264583 z m -2.447396,0.307404 C 74.801837,73.071091 74.598612,72.19245 74.598612,71.510193 v -1.215947 h 3.175 3.175 v 1.293605 c 0,0.898191 -0.159059,1.484532 -0.520364,1.918229 l -0.520364,0.624624 -0.0088,-0.691923 c -0.01475,-1.159558 -0.949152,-2.086202 -2.103665,-2.086202 -1.201568,0 -1.889629,0.651812 -2.114116,2.002739 l -0.156646,0.942673 z m -1.203854,-4.064487 c -0.174625,-0.174625 -0.3175,-0.531813 -0.3175,-0.79375 0,-0.438767 0.333179,-0.47625 4.233333,-0.47625 3.900154,0 4.233333,0.03748 4.233333,0.47625 0,0.97515 -0.518477,1.11125 -4.233333,1.11125 -2.445926,0 -3.700016,-0.101683 -3.915833,-0.3175 z"
       id="path75"
       inkscape:connector-curvature="0" />
  </g>
</svg>
