<?xml version="1.0" encoding="UTF-8" standalone="no"?>
<!-- Created with Inkscape (http://www.inkscape.org/) -->

<svg
   xmlns:dc="http://purl.org/dc/elements/1.1/"
   xmlns:cc="http://creativecommons.org/ns#"
   xmlns:rdf="http://www.w3.org/1999/02/22-rdf-syntax-ns#"
   xmlns:svg="http://www.w3.org/2000/svg"
   xmlns="http://www.w3.org/2000/svg"
   xmlns:sodipodi="http://sodipodi.sourceforge.net/DTD/sodipodi-0.dtd"
   xmlns:inkscape="http://www.inkscape.org/namespaces/inkscape"
   width="7.7820301mm"
   height="7.2760401mm"
   viewBox="0 0 7.7820301 7.2760401"
   version="1.1"
   id="svg127"
   inkscape:version="0.92.5 (2060ec1f9f, 2020-04-08)"
   sodipodi:docname="cameras.svg">
  <defs
     id="defs121" />
  <sodipodi:namedview
     id="base"
     pagecolor="#ffffff"
     bordercolor="#666666"
     borderopacity="1.0"
     inkscape:pageopacity="0.0"
     inkscape:pageshadow="2"
     inkscape:zoom="3.959798"
     inkscape:cx="307.72255"
     inkscape:cy="-57.095188"
     inkscape:document-units="mm"
     inkscape:current-layer="layer1"
     showgrid="false"
     inkscape:window-width="3840"
     inkscape:window-height="2054"
     inkscape:window-x="0"
     inkscape:window-y="0"
     inkscape:window-maximized="1" />
  <metadata
     id="metadata124">
    <rdf:RDF>
      <cc:Work
         rdf:about="">
        <dc:format>image/svg+xml</dc:format>
        <dc:type
           rdf:resource="http://purl.org/dc/dcmitype/StillImage" />
        <dc:title></dc:title>
      </cc:Work>
    </rdf:RDF>
  </metadata>
  <g
     inkscape:label="Layer 1"
     inkscape:groupmode="layer"
     id="layer1"
     transform="translate(-94.32829,-197.42216)">
    <path
       style="fill:#000000;stroke-width:0.26458332"
       d="m 95.998379,203.79862 c -0.76231,-0.76231 -0.89959,-1.08531 -0.89959,-2.11667 v -1.21708 h 3.175 3.175001 v 1.21708 c 0,1.03136 -0.13727,1.35436 -0.89958,2.11667 -0.792391,0.79239 -1.063521,0.89958 -2.275421,0.89958 -1.21189,0 -1.48302,-0.10719 -2.27541,-0.89958 z m 3.08656,-0.16806 c 0.58002,-0.31042 0.69737,-1.55135 0.19427,-2.05444 -0.40929,-0.40929 -1.60154,-0.40929 -2.01083,0 -0.4759,0.4759 -0.38636,1.73276 0.14552,2.04255 0.59759,0.34807 1.03704,0.35119 1.67104,0.0119 z m -1.29257,-1.11517 c 0.0465,-0.32742 0.26314,-0.59532 0.48142,-0.59532 0.21828,0 0.43492,0.2679 0.48143,0.59532 0.0651,0.45817 -0.0458,0.59531 -0.48143,0.59531 -0.43559,0 -0.54649,-0.13714 -0.48142,-0.59531 z m -3.38027,-3.2115 c -0.0806,-0.21 -0.10787,-0.7193 -0.0606,-1.13178 l 0.0859,-0.74995 h 3.83646 3.836461 v 1.05833 1.05833 l -3.775811,0.0735 c -3.09446,0.0602 -3.80226,0.005 -3.92234,-0.30838 z m 2.00961,-0.8234 c 0,-0.21828 -0.11204,-0.39687 -0.24897,-0.39687 -0.33363,0 -0.57258,0.41317 -0.3612,0.62455 0.29797,0.29797 0.61017,0.18148 0.61017,-0.22768 z m 1.32292,0 c 0,-0.21828 -0.11907,-0.39687 -0.26459,-0.39687 -0.14552,0 -0.26458,0.17859 -0.26458,0.39687 0,0.21828 0.11906,0.39688 0.26458,0.39688 0.14552,0 0.26459,-0.1786 0.26459,-0.39688 z m 1.5875,0 c 0,-0.21828 -0.11907,-0.39687 -0.26459,-0.39687 -0.14552,0 -0.26458,0.17859 -0.26458,0.39687 0,0.21828 0.11906,0.39688 0.26458,0.39688 0.14552,0 0.26459,-0.1786 0.26459,-0.39688 z m 1.362601,0 c 0,-0.13824 -0.12799,-0.29402 -0.28443,-0.34616 -0.15643,-0.0521 -0.28442,0.10363 -0.28442,0.34616 0,0.24254 0.12799,0.39831 0.28442,0.34616 0.15644,-0.0521 0.28443,-0.20791 0.28443,-0.34616 z"
       id="path191"
       inkscape:connector-curvature="0" />
  </g>
</svg>
