<?xml version="1.0" encoding="UTF-8" standalone="no"?>
<!-- Created with Inkscape (http://www.inkscape.org/) -->

<svg
   xmlns:dc="http://purl.org/dc/elements/1.1/"
   xmlns:cc="http://creativecommons.org/ns#"
   xmlns:rdf="http://www.w3.org/1999/02/22-rdf-syntax-ns#"
   xmlns:svg="http://www.w3.org/2000/svg"
   xmlns="http://www.w3.org/2000/svg"
   xmlns:sodipodi="http://sodipodi.sourceforge.net/DTD/sodipodi-0.dtd"
   xmlns:inkscape="http://www.inkscape.org/namespaces/inkscape"
   width="16.933334mm"
   height="24.376518mm"
   viewBox="0 0 16.933334 24.376518"
   version="1.1"
   id="svg534"
   inkscape:version="0.92.5 (2060ec1f9f, 2020-04-08)"
   sodipodi:docname="door.svg">
  <defs
     id="defs528" />
  <sodipodi:namedview
     id="base"
     pagecolor="#ffffff"
     bordercolor="#666666"
     borderopacity="1.0"
     inkscape:pageopacity="0.0"
     inkscape:pageshadow="2"
     inkscape:zoom="2.8"
     inkscape:cx="195.58513"
     inkscape:cy="13.14421"
     inkscape:document-units="mm"
     inkscape:current-layer="layer1"
     showgrid="false"
     inkscape:window-width="3840"
     inkscape:window-height="2054"
     inkscape:window-x="0"
     inkscape:window-y="0"
     inkscape:window-maximized="1" />
  <metadata
     id="metadata531">
    <rdf:RDF>
      <cc:Work
         rdf:about="">
        <dc:format>image/svg+xml</dc:format>
        <dc:type
           rdf:resource="http://purl.org/dc/dcmitype/StillImage" />
        <dc:title></dc:title>
      </cc:Work>
    </rdf:RDF>
  </metadata>
  <g
     inkscape:label="Layer 1"
     inkscape:groupmode="layer"
     id="layer1"
     transform="translate(-91.192934,-199.88697)">
    <g
       id="g588"
       transform="translate(32.606882)">
      <path
         style="fill:#d0d0d0;fill-opacity:1;stroke-width:0.35277778"
         d="m 59.499357,223.17809 c -0.895965,-1.06479 -0.913305,-1.18846 -0.913305,-6.51411 v -5.42871 l 1.058334,-1.20538 c 0.931239,-1.06062 1.058333,-1.46666 1.058333,-3.38118 0,-2.38904 0.477261,-3.59087 1.996978,-5.02875 2.442121,-2.31061 6.246732,-2.31061 8.717998,0 1.392258,1.30175 1.985024,2.85795 1.985024,5.21132 0,1.71166 0.149507,2.16351 1.058333,3.19861 l 1.058334,1.20538 v 5.42871 c 0,5.32565 -0.01734,5.44932 -0.913305,6.51411 l -0.913303,1.0854 H 67.052719 60.41266 Z m 8.173916,-3.94168 c 0.194792,-0.24254 0.435803,-0.9966 0.535579,-1.6757 0.09978,-0.67909 0.289666,-1.56824 0.421976,-1.97588 0.281726,-0.86797 -0.577227,-1.90467 -1.578109,-1.90467 -1.000882,0 -1.859835,1.0367 -1.578109,1.90467 0.13231,0.40764 0.3222,1.29679 0.421976,1.97588 0.1823,1.24078 0.660717,2.11667 1.156133,2.11667 0.146512,0 0.425762,-0.19844 0.620554,-0.44097 z m 4.317787,-11.99445 c -0.0012,-3.1533 -2.044982,-5.37986 -4.938341,-5.37986 -2.893359,0 -4.937188,2.22656 -4.938341,5.37986 l -5.48e-4,1.49931 h 4.938889 4.938889 l -5.65e-4,-1.49931 z"
         id="path604"
         inkscape:connector-curvature="0" />
      <path
         style="fill:#b9b9b9;fill-opacity:1;stroke-width:0.35277778"
         d="m 59.499357,223.17809 c -0.895965,-1.06479 -0.913305,-1.18846 -0.913305,-6.51411 v -5.42871 l 1.058334,-1.20538 c 0.908826,-1.0351 1.058333,-1.48695 1.058333,-3.19861 0,-2.35337 0.592766,-3.90957 1.985024,-5.21132 2.471312,-2.31065 6.25864,-2.31065 8.729952,0 1.392258,1.30175 1.985024,2.85795 1.985024,5.21132 0,1.71166 0.149507,2.16351 1.058333,3.19861 l 1.058334,1.20538 v 5.42871 c 0,5.32565 -0.01734,5.44932 -0.913305,6.51411 l -0.913303,1.0854 H 67.052719 60.41266 Z m 8.173916,-3.94168 c 0.194792,-0.24254 0.435803,-0.9966 0.535579,-1.6757 0.09978,-0.67909 0.289666,-1.56824 0.421976,-1.97588 0.281726,-0.86797 -0.577227,-1.90467 -1.578109,-1.90467 -1.000882,0 -1.859835,1.0367 -1.578109,1.90467 0.13231,0.40764 0.3222,1.29679 0.421976,1.97588 0.1823,1.24078 0.660717,2.11667 1.156133,2.11667 0.146512,0 0.425762,-0.19844 0.620554,-0.44097 z m 4.317787,-11.99445 c -0.0012,-3.1533 -2.044982,-5.37986 -4.938341,-5.37986 -2.893359,0 -4.937188,2.22656 -4.938341,5.37986 l -5.48e-4,1.49931 h 4.938889 4.938889 l -5.65e-4,-1.49931 z"
         id="path602"
         inkscape:connector-curvature="0" />
      <path
         style="fill:#a3a3a3;fill-opacity:1;stroke-width:0.35277778"
         d="m 59.499357,223.17809 c -0.895965,-1.06479 -0.913305,-1.18846 -0.913305,-6.51411 v -5.42871 l 1.058334,-1.20538 c 0.908826,-1.0351 1.058333,-1.48695 1.058333,-3.19861 0,-2.35337 0.592766,-3.90957 1.985024,-5.21132 2.471312,-2.31065 6.25864,-2.31065 8.729952,0 1.392258,1.30175 1.985024,2.85795 1.985024,5.21132 0,1.71166 0.149507,2.16351 1.058333,3.19861 l 1.058334,1.20538 v 5.42871 c 0,5.32565 -0.01734,5.44932 -0.913305,6.51411 l -0.913303,1.0854 H 67.052719 60.41266 Z m 8.173916,-3.94168 c 0.194792,-0.24254 0.435803,-0.9966 0.535579,-1.6757 0.09978,-0.67909 0.289666,-1.56824 0.421976,-1.97588 0.281726,-0.86797 -0.577227,-1.90467 -1.578109,-1.90467 -1.000882,0 -1.859835,1.0367 -1.578109,1.90467 0.13231,0.40764 0.3222,1.29679 0.421976,1.97588 0.1823,1.24078 0.660717,2.11667 1.156133,2.11667 0.146512,0 0.425762,-0.19844 0.620554,-0.44097 z m 4.317787,-11.99445 c -0.0012,-3.1533 -2.044982,-5.37986 -4.938341,-5.37986 -2.893359,0 -4.937188,2.22656 -4.938341,5.37986 l -5.48e-4,1.49931 h 4.938889 4.938889 l -5.65e-4,-1.49931 z"
         id="path600"
         inkscape:connector-curvature="0" />
      <path
         style="fill:#8c8c8c;fill-opacity:1;stroke-width:0.35277778"
         d="m 59.499357,223.17809 c -0.895965,-1.06479 -0.913305,-1.18846 -0.913305,-6.51411 v -5.42871 l 1.058334,-1.20538 c 0.908826,-1.0351 1.058333,-1.48695 1.058333,-3.19861 0,-2.35337 0.592766,-3.90957 1.985024,-5.21132 2.471312,-2.31065 6.25864,-2.31065 8.729952,0 1.392258,1.30175 1.985024,2.85795 1.985024,5.21132 0,1.71166 0.149507,2.16351 1.058333,3.19861 l 1.058334,1.20538 v 5.42871 c 0,5.32565 -0.01734,5.44932 -0.913305,6.51411 l -0.913303,1.0854 H 67.052719 60.41266 Z m 8.173916,-3.94168 c 0.194792,-0.24254 0.435803,-0.9966 0.535579,-1.6757 0.09978,-0.67909 0.289666,-1.56824 0.421976,-1.97588 0.281726,-0.86797 -0.577227,-1.90467 -1.578109,-1.90467 -1.000882,0 -1.859835,1.0367 -1.578109,1.90467 0.13231,0.40764 0.3222,1.29679 0.421976,1.97588 0.1823,1.24078 0.660717,2.11667 1.156133,2.11667 0.146512,0 0.425762,-0.19844 0.620554,-0.44097 z m 4.317787,-11.99445 c -0.0012,-3.1533 -2.044982,-5.37986 -4.938341,-5.37986 -2.893359,0 -4.937188,2.22656 -4.938341,5.37986 l -5.48e-4,1.49931 h 4.938889 4.938889 l -5.65e-4,-1.49931 z"
         id="path598"
         inkscape:connector-curvature="0" />
      <path
         style="fill:#767676;fill-opacity:1;stroke-width:0.35277778"
         d="m 59.499357,223.17809 c -0.895965,-1.06479 -0.913305,-1.18846 -0.913305,-6.51411 v -5.42871 l 1.058334,-1.20538 c 0.908826,-1.0351 1.058333,-1.48695 1.058333,-3.19861 0,-2.35337 0.592766,-3.90957 1.985024,-5.21132 2.471312,-2.31065 6.25864,-2.31065 8.729952,0 1.392258,1.30175 1.985024,2.85795 1.985024,5.21132 0,1.71166 0.149507,2.16351 1.058333,3.19861 l 1.058334,1.20538 v 5.42871 c 0,5.32565 -0.01734,5.44932 -0.913305,6.51411 l -0.913303,1.0854 H 67.052719 60.41266 Z m 8.173916,-3.94168 c 0.194792,-0.24254 0.435803,-0.9966 0.535579,-1.6757 0.09978,-0.67909 0.289666,-1.56824 0.421976,-1.97588 0.281726,-0.86797 -0.577227,-1.90467 -1.578109,-1.90467 -1.000882,0 -1.859835,1.0367 -1.578109,1.90467 0.13231,0.40764 0.3222,1.29679 0.421976,1.97588 0.1823,1.24078 0.660717,2.11667 1.156133,2.11667 0.146512,0 0.425762,-0.19844 0.620554,-0.44097 z m 4.317787,-11.99445 c -0.0012,-3.1533 -2.044982,-5.37986 -4.938341,-5.37986 -2.893359,0 -4.937188,2.22656 -4.938341,5.37986 l -5.48e-4,1.49931 h 4.938889 4.938889 l -5.65e-4,-1.49931 z"
         id="path596"
         inkscape:connector-curvature="0" />
      <path
         style="fill:#606060;fill-opacity:1;stroke-width:0.35277778"
         d="m 59.499357,223.17809 c -0.895965,-1.06479 -0.913305,-1.18846 -0.913305,-6.51411 v -5.42871 l 1.058334,-1.20538 c 0.908826,-1.0351 1.058333,-1.48695 1.058333,-3.19861 0,-2.35337 0.592766,-3.90957 1.985024,-5.21132 2.471312,-2.31065 6.25864,-2.31065 8.729952,0 1.392258,1.30175 1.985024,2.85795 1.985024,5.21132 0,1.71166 0.149507,2.16351 1.058333,3.19861 l 1.058334,1.20538 v 5.42871 c 0,5.32565 -0.01734,5.44932 -0.913305,6.51411 l -0.913303,1.0854 H 67.052719 60.41266 Z m 8.173916,-3.94168 c 0.194792,-0.24254 0.435803,-0.9966 0.535579,-1.6757 0.09978,-0.67909 0.289666,-1.56824 0.421976,-1.97588 0.281726,-0.86797 -0.577227,-1.90467 -1.578109,-1.90467 -1.000882,0 -1.859835,1.0367 -1.578109,1.90467 0.13231,0.40764 0.3222,1.29679 0.421976,1.97588 0.1823,1.24078 0.660717,2.11667 1.156133,2.11667 0.146512,0 0.425762,-0.19844 0.620554,-0.44097 z m 4.317787,-11.99445 c -0.0012,-3.1533 -2.044982,-5.37986 -4.938341,-5.37986 -2.893359,0 -4.937188,2.22656 -4.938341,5.37986 l -5.48e-4,1.49931 h 4.938889 4.938889 l -5.65e-4,-1.49931 z"
         id="path594"
         inkscape:connector-curvature="0" />
      <path
         style="fill:#494949;fill-opacity:1;stroke-width:0.35277778"
         d="m 59.499357,223.17809 c -0.895965,-1.06479 -0.913305,-1.18846 -0.913305,-6.51411 v -5.42871 l 1.058334,-1.20538 c 0.908826,-1.0351 1.058333,-1.48695 1.058333,-3.19861 0,-2.35337 0.592766,-3.90957 1.985024,-5.21132 2.471312,-2.31065 6.25864,-2.31065 8.729952,0 1.392258,1.30175 1.985024,2.85795 1.985024,5.21132 0,1.71166 0.149507,2.16351 1.058333,3.19861 l 1.058334,1.20538 v 5.42871 c 0,5.32565 -0.01734,5.44932 -0.913305,6.51411 l -0.913303,1.0854 H 67.052719 60.41266 Z m 8.173916,-3.94168 c 0.194792,-0.24254 0.435803,-0.9966 0.535579,-1.6757 0.09978,-0.67909 0.289666,-1.56824 0.421976,-1.97588 0.281726,-0.86797 -0.577227,-1.90467 -1.578109,-1.90467 -1.000882,0 -1.859835,1.0367 -1.578109,1.90467 0.13231,0.40764 0.3222,1.29679 0.421976,1.97588 0.1823,1.24078 0.660717,2.11667 1.156133,2.11667 0.146512,0 0.425762,-0.19844 0.620554,-0.44097 z m 4.317787,-11.99445 c -0.0012,-3.1533 -2.044982,-5.37986 -4.938341,-5.37986 -2.893359,0 -4.937188,2.22656 -4.938341,5.37986 l -5.48e-4,1.49931 h 4.938889 4.938889 l -5.65e-4,-1.49931 z"
         id="path592"
         inkscape:connector-curvature="0" />
      <path
         style="fill:#333333;fill-opacity:1;stroke-width:0.35277778"
         d="m 59.499357,223.17809 c -0.895965,-1.06479 -0.913305,-1.18846 -0.913305,-6.51411 v -5.42871 l 1.058334,-1.20538 c 0.908826,-1.0351 1.058333,-1.48695 1.058333,-3.19861 0,-2.35337 0.592766,-3.90957 1.985024,-5.21132 2.471312,-2.31065 6.25864,-2.31065 8.729952,0 1.392258,1.30175 1.985024,2.85795 1.985024,5.21132 0,1.71166 0.149507,2.16351 1.058333,3.19861 l 1.058334,1.20538 v 5.42871 c 0,5.32565 -0.01734,5.44932 -0.913305,6.51411 l -0.913303,1.0854 H 67.052719 60.41266 Z m 8.173916,-3.94168 c 0.194792,-0.24254 0.435803,-0.9966 0.535579,-1.6757 0.09978,-0.67909 0.289666,-1.56824 0.421976,-1.97588 0.281726,-0.86797 -0.577227,-1.90467 -1.578109,-1.90467 -1.000882,0 -1.859835,1.0367 -1.578109,1.90467 0.13231,0.40764 0.3222,1.29679 0.421976,1.97588 0.1823,1.24078 0.660717,2.11667 1.156133,2.11667 0.146512,0 0.425762,-0.19844 0.620554,-0.44097 z m 4.317787,-11.99445 c -0.0012,-3.1533 -2.044982,-5.37986 -4.938341,-5.37986 -2.893359,0 -4.937188,2.22656 -4.938341,5.37986 l -5.48e-4,1.49931 h 4.938889 4.938889 l -5.65e-4,-1.49931 z"
         id="path590"
         inkscape:connector-curvature="0" />
    </g>
  </g>
</svg>
