<?xml version="1.0" encoding="UTF-8" standalone="no"?>
<!-- Created with Inkscape (http://www.inkscape.org/) -->

<svg
   xmlns:dc="http://purl.org/dc/elements/1.1/"
   xmlns:cc="http://creativecommons.org/ns#"
   xmlns:rdf="http://www.w3.org/1999/02/22-rdf-syntax-ns#"
   xmlns:svg="http://www.w3.org/2000/svg"
   xmlns="http://www.w3.org/2000/svg"
   xmlns:sodipodi="http://sodipodi.sourceforge.net/DTD/sodipodi-0.dtd"
   xmlns:inkscape="http://www.inkscape.org/namespaces/inkscape"
   width="8.46667mm"
   height="8.4667101mm"
   viewBox="0 0 8.46667 8.4667101"
   version="1.1"
   id="svg529"
   inkscape:version="0.92.5 (2060ec1f9f, 2020-04-08)"
   sodipodi:docname="drone.svg">
  <defs
     id="defs523" />
  <sodipodi:namedview
     id="base"
     pagecolor="#ffffff"
     bordercolor="#666666"
     borderopacity="1.0"
     inkscape:pageopacity="0.0"
     inkscape:pageshadow="2"
     inkscape:zoom="5.6"
     inkscape:cx="168.03629"
     inkscape:cy="-53.526179"
     inkscape:document-units="mm"
     inkscape:current-layer="layer1"
     showgrid="false"
     inkscape:window-width="3840"
     inkscape:window-height="2054"
     inkscape:window-x="0"
     inkscape:window-y="0"
     inkscape:window-maximized="1" />
  <metadata
     id="metadata526">
    <rdf:RDF>
      <cc:Work
         rdf:about="">
        <dc:format>image/svg+xml</dc:format>
        <dc:type
           rdf:resource="http://purl.org/dc/dcmitype/StillImage" />
        <dc:title></dc:title>
      </cc:Work>
    </rdf:RDF>
  </metadata>
  <g
     inkscape:label="Layer 1"
     inkscape:groupmode="layer"
     id="layer1"
     transform="translate(-114.60807,-208.3567)">
    <path
       style="fill:#000000;stroke-width:0.26458332"
       d="m 115.13724,216.2942 c -0.29105,-0.29104 -0.52917,-0.82682 -0.52917,-1.19063 0,-0.75195 0.84201,-1.71979 1.49622,-1.71979 0.40006,0 0.39822,0.0438 -0.0213,0.50735 -0.25252,0.27904 -0.41981,0.78506 -0.37173,1.12448 0.11102,0.78386 1.12644,0.96862 1.82902,0.3328 0.46352,-0.41948 0.50734,-0.42132 0.50734,-0.0213 0,0.6542 -0.96783,1.49622 -1.71979,1.49622 -0.3638,0 -0.89958,-0.23813 -1.19062,-0.52917 z m 5.02708,0 c -0.29104,-0.29104 -0.52917,-0.72621 -0.52917,-0.96705 0,-0.40006 0.0438,-0.39822 0.50735,0.0213 0.27904,0.25253 0.78506,0.41981 1.12448,0.37174 0.78386,-0.11102 0.96862,-1.12645 0.3328,-1.82902 -0.41948,-0.46353 -0.42132,-0.50735 -0.0213,-0.50735 0.63754,0 1.49622,0.96052 1.49622,1.67367 0,0.76104 -1.02598,1.76592 -1.80299,1.76592 -0.31805,0 -0.81639,-0.23813 -1.10743,-0.52917 z m -3.96875,-1.35087 c 0,-0.16089 0.29766,-0.64628 0.66146,-1.07863 0.3638,-0.43236 0.66146,-1.00596 0.66146,-1.27467 0,-0.26871 -0.29766,-0.84231 -0.66146,-1.27466 -1.1711,-1.39178 -0.68207,-1.88081 0.70971,-0.70971 0.99039,0.83336 1.55894,0.83336 2.54933,0 1.39177,-1.1711 1.88081,-0.68207 0.70971,0.70971 -0.3638,0.43235 -0.66146,1.00595 -0.66146,1.27466 0,0.26871 0.29766,0.84231 0.66146,1.27467 0.3638,0.43235 0.66146,0.91774 0.66146,1.07863 0,0.47901 -0.53431,0.33525 -1.37117,-0.36892 -0.43236,-0.3638 -1.00596,-0.66146 -1.27467,-0.66146 -0.26871,0 -0.84231,0.29766 -1.27466,0.66146 -0.83686,0.70417 -1.37117,0.84793 -1.37117,0.36892 z m 3.18602,-1.9697 c 0.28119,-0.33882 0.26382,-0.48673 -0.0999,-0.85045 -0.41067,-0.41066 -0.46992,-0.41066 -0.88059,0 -0.36371,0.36372 -0.38109,0.51163 -0.0999,0.85045 0.18721,0.22558 0.4303,0.41015 0.54018,0.41015 0.10989,0 0.35297,-0.18457 0.54019,-0.41015 z m -0.80477,-0.3836 c 0,-0.14552 0.11906,-0.26458 0.26458,-0.26458 0.14552,0 0.26459,0.11906 0.26459,0.26458 0,0.14552 -0.11907,0.26459 -0.26459,0.26459 -0.14552,0 -0.26458,-0.11907 -0.26458,-0.26459 z m -3.43958,-1.32291 c -1.04796,-1.04796 -0.28604,-2.91042 1.19062,-2.91042 0.75196,0 1.71979,0.84201 1.71979,1.49622 0,0.40006 -0.0438,0.39822 -0.50734,-0.0213 -0.70258,-0.63582 -1.718,-0.45105 -1.82902,0.33281 -0.0481,0.33942 0.11921,0.84543 0.37173,1.12448 0.41949,0.46352 0.42133,0.50734 0.0213,0.50734 -0.24084,0 -0.67601,-0.23812 -0.96705,-0.52916 z m 6.46254,0.0218 c 0.63582,-0.70257 0.45106,-1.71799 -0.3328,-1.82901 -0.33942,-0.0481 -0.84544,0.11921 -1.12448,0.37173 -0.46353,0.41949 -0.50735,0.42133 -0.50735,0.0213 0,-0.65421 0.96784,-1.49622 1.71979,-1.49622 0.84912,0 1.7198,0.87067 1.7198,1.71979 0,0.75196 -0.84202,1.71979 -1.49622,1.71979 -0.40006,0 -0.39822,-0.0438 0.0213,-0.50734 z"
       id="path593"
       inkscape:connector-curvature="0" />
  </g>
</svg>
