<?xml version="1.0" encoding="UTF-8" standalone="no"?>
<!-- Created with Inkscape (http://www.inkscape.org/) -->

<svg
   xmlns:dc="http://purl.org/dc/elements/1.1/"
   xmlns:cc="http://creativecommons.org/ns#"
   xmlns:rdf="http://www.w3.org/1999/02/22-rdf-syntax-ns#"
   xmlns:svg="http://www.w3.org/2000/svg"
   xmlns="http://www.w3.org/2000/svg"
   xmlns:sodipodi="http://sodipodi.sourceforge.net/DTD/sodipodi-0.dtd"
   xmlns:inkscape="http://www.inkscape.org/namespaces/inkscape"
   width="8.3408375mm"
   height="8.4623518mm"
   viewBox="0 0 8.3408375 8.4623518"
   version="1.1"
   id="svg620"
   inkscape:version="0.92.5 (2060ec1f9f, 2020-04-08)"
   sodipodi:docname="radio.svg">
  <defs
     id="defs614" />
  <sodipodi:namedview
     id="base"
     pagecolor="#ffffff"
     bordercolor="#666666"
     borderopacity="1.0"
     inkscape:pageopacity="0.0"
     inkscape:pageshadow="2"
     inkscape:zoom="3.959798"
     inkscape:cx="236.98793"
     inkscape:cy="-77.969551"
     inkscape:document-units="mm"
     inkscape:current-layer="layer1"
     showgrid="false"
     inkscape:window-width="3840"
     inkscape:window-height="2054"
     inkscape:window-x="0"
     inkscape:window-y="0"
     inkscape:window-maximized="1" />
  <metadata
     id="metadata617">
    <rdf:RDF>
      <cc:Work
         rdf:about="">
        <dc:format>image/svg+xml</dc:format>
        <dc:type
           rdf:resource="http://purl.org/dc/dcmitype/StillImage" />
        <dc:title></dc:title>
      </cc:Work>
    </rdf:RDF>
  </metadata>
  <g
     inkscape:label="Layer 1"
     inkscape:groupmode="layer"
     id="layer1"
     transform="translate(-127.32465,-165.38869)">
    <path
       style="fill:#000000;stroke-width:0.26458332"
       d="m 130.64875,172.74303 c -0.79239,-0.608 -1.86186,-1.17251 -2.38125,-1.25694 l -0.94285,-0.15325 v -1.71082 -1.71081 l 0.93636,-0.1522 c 0.51499,-0.0837 1.59737,-0.65128 2.40529,-1.26126 0.80791,-0.60998 1.54741,-1.10906 1.64333,-1.10906 0.0959,0 0.1744,1.905 0.1744,4.23333 0,2.32834 -0.0893,4.23139 -0.19844,4.22902 -0.10914,-0.002 -0.84572,-0.50098 -1.63684,-1.10801 z m 2.62903,-1.00434 c 0,-0.14552 0.15784,-0.26458 0.35075,-0.26458 0.57022,0 1.50133,-1.17164 1.50133,-1.88916 0,-0.67489 -0.96637,-1.81501 -1.53841,-1.81501 -0.17252,0 -0.31367,-0.11906 -0.31367,-0.26458 0,-0.51974 0.8475,-0.25154 1.60785,0.50881 1.03981,1.03982 1.03981,2.17589 0,3.21571 -0.76035,0.76034 -1.60785,1.02854 -1.60785,0.50881 z m 0,-1.32292 c 0,-0.14552 0.11906,-0.26458 0.26458,-0.26458 0.38349,0 0.32551,-0.99248 -0.0661,-1.13235 -0.1819,-0.065 -0.24431,-0.21092 -0.13868,-0.32434 0.26978,-0.28969 0.99858,0.37228 0.99858,0.907 0,0.46377 -0.48271,1.07886 -0.84667,1.07886 -0.11641,0 -0.21166,-0.11907 -0.21166,-0.26459 z"
       id="path684"
       inkscape:connector-curvature="0" />
  </g>
</svg>
